<svg width="34" height="34" viewBox="0 0 34 34" fill="none" xmlns="http://www.w3.org/2000/svg">
<circle cx="17" cy="17" r="16.5" fill="white" stroke="#DDDDDD"/>
<path d="M28.3576 16.8134C27.9952 16.1004 27.6722 15.3875 27.3335 14.6784C27.2901 14.5918 27.2507 14.5918 27.1877 14.6351C27.1444 14.6666 27.101 14.6981 27.0616 14.7375C25.7381 16.0886 24.3871 17.4082 23.0478 18.7474C21.6298 20.1655 20.2078 21.5796 18.7819 22.9936C18.0177 23.7499 17.2614 24.5102 16.5091 25.2744C16.3712 25.4162 16.2176 25.5383 16.0522 25.6367C15.4455 25.9991 14.5278 25.5501 14.4332 24.8489C14.386 24.4905 14.4726 24.1793 14.7286 23.9233C15.3195 23.3245 15.9143 22.7297 16.5091 22.1389C19.3412 19.3068 22.1734 16.4825 25.0055 13.6503C25.2064 13.4495 25.3994 13.2407 25.5964 13.0398C25.62 13.0122 25.6436 12.9807 25.6712 12.9532C24.8479 12.6381 23.5323 11.9999 23.4023 11.8502C25.8524 11.5745 28.1488 10.7788 30.4137 9.82166C30.3783 9.99103 30.3153 10.1328 30.2562 10.2746C29.6063 11.7714 29.0824 13.3116 28.7436 14.9109C28.6097 15.5371 28.4875 16.1713 28.3576 16.8134Z" fill="#2E2D70"/>
<path d="M9.69005 26.9996C9.09133 27.0114 8.5635 26.456 8.57138 25.9007C8.57531 25.5619 8.68955 25.294 8.92589 25.0577C10.6472 23.3403 12.3686 21.6229 14.0899 19.9055C15.1692 18.8262 16.2485 17.7469 17.3278 16.6676C17.4538 16.5416 17.572 16.4037 17.702 16.2777C18.0171 15.9704 18.3953 15.8798 18.8167 16.0098C19.2421 16.1437 19.5178 16.4313 19.6045 16.8725C19.6754 17.2427 19.5415 17.5618 19.2894 17.8296C19.0136 18.1211 18.7261 18.4047 18.4385 18.6884C16.4297 20.6972 14.409 22.6903 12.4198 24.719C11.8683 25.2783 11.309 25.8337 10.7811 26.4127C10.596 26.6175 10.3833 26.7948 10.1233 26.909C9.97762 26.972 9.83186 27.0036 9.69005 26.9996Z" fill="#35499E"/>
<path d="M14.0909 8.44296C14.1264 8.82504 13.961 9.11653 13.7049 9.37256C12.8029 10.2707 11.9048 11.1687 11.0067 12.0668C10.6325 12.4411 10.215 12.7759 9.8447 13.158C9.02933 13.9851 8.20214 14.8044 7.38676 15.6277C7.18981 15.8286 7.00468 16.0452 6.78016 16.2185C6.44928 16.4707 6.0869 16.4707 5.70875 16.3643C5.22819 16.2264 5.04306 15.8325 5.00367 15.3717C4.9761 15.0408 5.10608 14.773 5.31879 14.5366C5.59846 14.2215 5.89782 13.93 6.22082 13.6542C6.55564 13.3667 6.85106 13.0398 7.16224 12.7286C7.8043 12.0944 8.43848 11.4524 9.07265 10.8142C9.60442 10.2825 10.1283 9.74677 10.6601 9.21894C11.1091 8.77777 11.5503 8.33266 11.9915 7.88362C12.2042 7.66304 12.4326 7.44639 12.7517 7.39125C13.3268 7.28883 13.961 7.60001 14.0831 8.18298C14.0949 8.27358 14.087 8.36024 14.0909 8.44296Z" fill="#A3D188"/>
<path d="M19.0614 12.9216C19.0771 13.2249 18.9353 13.5085 18.6872 13.7567C17.7024 14.7296 16.7216 15.7104 15.7408 16.6912C14.6103 17.8217 13.4798 18.9562 12.3493 20.0906C12.2233 20.2167 12.0933 20.3309 11.9357 20.4175C11.5773 20.6106 10.8486 20.5357 10.5414 20.0985C10.305 19.7597 10.1829 19.1216 10.6044 18.6883C11.0219 18.2589 11.4631 17.8532 11.8727 17.416C12.952 16.2658 14.0864 15.1747 15.1933 14.0561C15.8353 13.4061 16.4892 12.7641 17.1273 12.1141C17.6197 11.6099 18.5809 11.6493 18.9393 12.3504C19.0338 12.5238 19.0614 12.6538 19.0614 12.9216Z" fill="#47B649"/>
<path d="M12.6288 14.6784C12.0261 14.6824 11.4825 14.1821 11.4786 13.6149C11.4747 13.2998 11.5889 13.0162 11.8055 12.7798C12.2191 12.3347 12.6564 11.9172 13.0818 11.4878C14.4604 10.1052 15.8469 8.72266 17.2296 7.34007C17.5762 6.99738 18.0646 6.90678 18.4782 7.09979C19.1084 7.38734 19.3251 8.16333 18.943 8.74236C18.7775 8.99051 18.557 9.18747 18.3522 9.39623C17.9346 9.81376 17.521 10.2352 17.1074 10.6488C16.7884 10.9679 16.4654 11.2791 16.1463 11.5981C15.7327 12.0157 15.3231 12.445 14.8977 12.8586C14.4289 13.3156 13.9641 13.7843 13.4993 14.2491C13.326 14.4224 13.133 14.5721 12.8927 14.643C12.7942 14.6705 12.6997 14.6824 12.6288 14.6784Z" fill="#86C667"/>
<path d="M20.8108 17.16C20.8108 17.097 20.8108 17.0497 20.8108 17.0025C20.8108 14.7297 20.8108 12.4569 20.8147 10.1841C20.8147 10.0698 20.795 10.0383 20.6729 10.0383C19.9678 10.0462 19.2627 10.0423 18.5577 10.0423C18.5222 10.0423 18.471 10.0619 18.4513 10.0226C18.4316 9.98317 18.4749 9.95165 18.4946 9.92408C18.7389 9.6129 19.0224 9.33717 19.3218 9.08113C19.3967 9.01811 19.4794 8.99054 19.5857 8.99054C20.2908 8.99448 20.9959 8.99448 21.701 8.99054C21.7916 8.99054 21.827 9.01023 21.827 9.10871C21.8231 11.4367 21.8231 13.7646 21.8231 16.0886C21.8231 16.1398 21.8152 16.1871 21.7837 16.2304C21.5198 16.5731 21.2125 16.8725 20.8738 17.1364C20.862 17.1443 20.8423 17.1482 20.8108 17.16Z" fill="#7AA086"/>
<path d="M11.1611 22.1349C10.9799 22.4027 10.779 22.6115 10.5663 22.8085C10.5387 22.8321 10.5072 22.8596 10.4796 22.8833C10.2866 23.0685 10.0699 23.159 9.78635 23.1472C9.16003 23.1275 8.53374 23.1393 7.91137 23.1393C7.7223 23.1393 7.71049 23.1236 7.71049 22.9385C7.71049 20.6814 7.71049 18.4283 7.70654 16.1712C7.70654 16.0373 7.75775 15.931 7.83259 15.8364C8.05711 15.5489 8.32497 15.3007 8.61252 15.0762C8.63615 15.0565 8.66372 15.0132 8.69917 15.029C8.7425 15.0486 8.71887 15.0999 8.71887 15.1313C8.72281 16.3721 8.71887 17.609 8.71887 18.8498C8.71887 19.8936 8.71887 20.9374 8.71887 21.9813C8.71887 22.1349 8.71887 22.1349 8.87643 22.1349C9.57757 22.1349 10.2787 22.1349 10.9838 22.1349C11.035 22.1349 11.0823 22.1349 11.1611 22.1349Z" fill="#7AA085"/>
</svg>
